<mxfile host="app.diagrams.net" modified="2024-07-22T06:58:27.096Z" agent="Mozilla/5.0 (X11; Ubuntu; Linux x86_64; rv:128.0) Gecko/20100101 Firefox/128.0" etag="M-kXOf88_dLR9iZO5sqr" version="24.5.2" type="github">
  <diagram name="Page-1" id="h2RPyuyI6qJAirLQNu2Q">
    <mxGraphModel dx="819" dy="454" grid="1" gridSize="10" guides="1" tooltips="1" connect="1" arrows="1" fold="1" page="1" pageScale="1" pageWidth="850" pageHeight="1100" math="0" shadow="0">
      <root>
        <mxCell id="0" />
        <mxCell id="1" parent="0" />
        <mxCell id="JXTWyKHhHZ1CqQnQsF1v-3" value="INITIALIZATION" style="edgeStyle=orthogonalEdgeStyle;rounded=0;orthogonalLoop=1;jettySize=auto;html=1;curved=1;" edge="1" parent="1" source="JXTWyKHhHZ1CqQnQsF1v-1" target="JXTWyKHhHZ1CqQnQsF1v-2">
          <mxGeometry relative="1" as="geometry" />
        </mxCell>
        <mxCell id="JXTWyKHhHZ1CqQnQsF1v-1" value="Start" style="ellipse;whiteSpace=wrap;html=1;" vertex="1" parent="1">
          <mxGeometry x="120" y="100" width="120" height="80" as="geometry" />
        </mxCell>
        <mxCell id="JXTWyKHhHZ1CqQnQsF1v-5" value="ROBOT_READY" style="edgeStyle=orthogonalEdgeStyle;rounded=0;orthogonalLoop=1;jettySize=auto;html=1;curved=1;" edge="1" parent="1" source="JXTWyKHhHZ1CqQnQsF1v-2" target="JXTWyKHhHZ1CqQnQsF1v-4">
          <mxGeometry relative="1" as="geometry" />
        </mxCell>
        <mxCell id="JXTWyKHhHZ1CqQnQsF1v-2" value="Robot Initialization" style="ellipse;whiteSpace=wrap;html=1;" vertex="1" parent="1">
          <mxGeometry x="270" y="190" width="120" height="80" as="geometry" />
        </mxCell>
        <mxCell id="JXTWyKHhHZ1CqQnQsF1v-8" value="RB_CONNECTED" style="edgeStyle=orthogonalEdgeStyle;rounded=0;orthogonalLoop=1;jettySize=auto;html=1;curved=1;" edge="1" parent="1" source="JXTWyKHhHZ1CqQnQsF1v-4" target="JXTWyKHhHZ1CqQnQsF1v-7">
          <mxGeometry relative="1" as="geometry" />
        </mxCell>
        <mxCell id="JXTWyKHhHZ1CqQnQsF1v-4" value="Rhinobond Connection" style="ellipse;whiteSpace=wrap;html=1;" vertex="1" parent="1">
          <mxGeometry x="110" y="320" width="120" height="80" as="geometry" />
        </mxCell>
        <mxCell id="JXTWyKHhHZ1CqQnQsF1v-6" value="ROBOT_INIT_FAILED" style="edgeStyle=orthogonalEdgeStyle;rounded=0;orthogonalLoop=1;jettySize=auto;html=1;entryX=1;entryY=0.5;entryDx=0;entryDy=0;curved=1;" edge="1" parent="1" source="JXTWyKHhHZ1CqQnQsF1v-2" target="JXTWyKHhHZ1CqQnQsF1v-2">
          <mxGeometry relative="1" as="geometry" />
        </mxCell>
        <mxCell id="JXTWyKHhHZ1CqQnQsF1v-12" value="PLATE_FOUND" style="edgeStyle=orthogonalEdgeStyle;rounded=0;orthogonalLoop=1;jettySize=auto;html=1;entryX=1;entryY=0.5;entryDx=0;entryDy=0;curved=1;" edge="1" parent="1" source="JXTWyKHhHZ1CqQnQsF1v-7" target="JXTWyKHhHZ1CqQnQsF1v-11">
          <mxGeometry relative="1" as="geometry">
            <Array as="points">
              <mxPoint x="400" y="510" />
            </Array>
          </mxGeometry>
        </mxCell>
        <mxCell id="JXTWyKHhHZ1CqQnQsF1v-7" value="Waypoint &lt;br&gt;Execution" style="ellipse;whiteSpace=wrap;html=1;" vertex="1" parent="1">
          <mxGeometry x="340" y="380" width="120" height="80" as="geometry" />
        </mxCell>
        <mxCell id="JXTWyKHhHZ1CqQnQsF1v-9" value="CONNECT_FAIL" style="edgeStyle=orthogonalEdgeStyle;rounded=0;orthogonalLoop=1;jettySize=auto;html=1;entryX=0;entryY=0.5;entryDx=0;entryDy=0;curved=1;" edge="1" parent="1" source="JXTWyKHhHZ1CqQnQsF1v-4" target="JXTWyKHhHZ1CqQnQsF1v-4">
          <mxGeometry relative="1" as="geometry">
            <Array as="points">
              <mxPoint x="170" y="300" />
              <mxPoint x="90" y="300" />
              <mxPoint x="90" y="360" />
            </Array>
          </mxGeometry>
        </mxCell>
        <mxCell id="JXTWyKHhHZ1CqQnQsF1v-10" value="WAYPOINT_REACHED" style="edgeStyle=orthogonalEdgeStyle;rounded=0;orthogonalLoop=1;jettySize=auto;html=1;curved=1;" edge="1" parent="1" source="JXTWyKHhHZ1CqQnQsF1v-7" target="JXTWyKHhHZ1CqQnQsF1v-7">
          <mxGeometry relative="1" as="geometry">
            <Array as="points">
              <mxPoint x="360" y="350" />
              <mxPoint x="420" y="350" />
            </Array>
          </mxGeometry>
        </mxCell>
        <mxCell id="JXTWyKHhHZ1CqQnQsF1v-14" value="WELD_SUCCESS" style="edgeStyle=orthogonalEdgeStyle;rounded=0;orthogonalLoop=1;jettySize=auto;html=1;entryX=0;entryY=0.5;entryDx=0;entryDy=0;curved=1;exitX=0.223;exitY=0.086;exitDx=0;exitDy=0;exitPerimeter=0;" edge="1" parent="1" source="JXTWyKHhHZ1CqQnQsF1v-11" target="JXTWyKHhHZ1CqQnQsF1v-7">
          <mxGeometry relative="1" as="geometry">
            <Array as="points">
              <mxPoint x="167" y="420" />
            </Array>
          </mxGeometry>
        </mxCell>
        <mxCell id="JXTWyKHhHZ1CqQnQsF1v-11" value="Plate Welding" style="ellipse;whiteSpace=wrap;html=1;" vertex="1" parent="1">
          <mxGeometry x="140" y="470" width="120" height="80" as="geometry" />
        </mxCell>
        <mxCell id="JXTWyKHhHZ1CqQnQsF1v-13" value="WELD_PROCESS" style="edgeStyle=orthogonalEdgeStyle;rounded=0;orthogonalLoop=1;jettySize=auto;html=1;entryX=0.712;entryY=0.947;entryDx=0;entryDy=0;entryPerimeter=0;curved=1;exitX=0.5;exitY=1;exitDx=0;exitDy=0;" edge="1" parent="1" source="JXTWyKHhHZ1CqQnQsF1v-11" target="JXTWyKHhHZ1CqQnQsF1v-11">
          <mxGeometry relative="1" as="geometry">
            <Array as="points">
              <mxPoint x="200" y="580" />
              <mxPoint x="225" y="580" />
              <mxPoint x="225" y="546" />
            </Array>
          </mxGeometry>
        </mxCell>
        <mxCell id="JXTWyKHhHZ1CqQnQsF1v-15" value="WAYPOINT_SETUP" style="edgeStyle=orthogonalEdgeStyle;rounded=0;orthogonalLoop=1;jettySize=auto;html=1;entryX=1;entryY=1;entryDx=0;entryDy=0;curved=1;exitX=0.98;exitY=0.382;exitDx=0;exitDy=0;exitPerimeter=0;" edge="1" parent="1" source="JXTWyKHhHZ1CqQnQsF1v-7" target="JXTWyKHhHZ1CqQnQsF1v-7">
          <mxGeometry relative="1" as="geometry">
            <Array as="points">
              <mxPoint x="480" y="411" />
              <mxPoint x="480" y="448" />
            </Array>
          </mxGeometry>
        </mxCell>
      </root>
    </mxGraphModel>
  </diagram>
</mxfile>
